PathFileType	4	(X/Y/Z)	OpenSim_Sub10_CSBaseline_Gyro.trc
DataRate	CameraRate	NumFrames	NumMarkers	Units	OrigDataRate	OrigDataStartFrame	OrigNumFrames
100	100	31	8	m	100	1	9111
Frame#	Time	torso_imu_offset_imu	pelvis_imu_offset_imu	tibia_r_imu_offset_imu	femur_r_imu_offset_imu	tibia_l_imu_offset_imu	femur_l_imu_offset_imu	toes_r_imu_offset_imu	toes_l_imu_offset_imu
				X1	Y1	Z1	X2	Y2	Z2	X3	Y3	Z3	X4	Y4	Z4	X5	Y5	Z5	X6	Y6	Z6	X7	Y7	Z7	X8		Y8	Z8	

1	0	0.04963952	0.05376766	0.06782762	0.01037328	-0.02561492	-0.02778268	0.07079692	-0.01463788	-0.03143016	0.08836240	-0.00558995	0.01521159	0.07907614	0.01609647	0.00567420	0.10820567	0.03045468	-0.03271116	0.00689845	0.02601748	-0.00484552	-0.00102146	0.00458987	0.00365735
2	0.01000000	0.03683329	0.05025366	0.06584313	0.01258698	-0.01450315	-0.02747076	0.06761315	-0.01796605	-0.02997905	0.07604801	-0.02275561	0.01220100	0.07936900	0.01726751	0.00288568	0.11149122	0.02863348	-0.03350955	0.00713596	0.02452719	-0.00142385	0.00049759	0.00688743	-0.00531563
3	0.02000000	0.02945281	0.05554346	0.05508203	0.01846361	-0.01209246	-0.03016002	0.06022158	-0.01502813	-0.02862438	0.06992821	-0.03050295	0.00233083	0.07459460	0.02052471	0.00576934	0.10449272	0.03029502	-0.03208276	0.00167796	0.02188522	0.00142051	0.00019284	0.00387426	-0.00267653
4	0.03000000	0.03121789	0.05729336	0.04510302	0.03426519	-0.01275275	-0.02769566	0.05946219	-0.00960203	-0.02251072	0.06960400	-0.03329650	-0.00244190	0.07500994	0.02420329	0.00527365	0.09611700	0.03459664	-0.02706537	0.00040048	0.02054123	0.00213824	0.00041974	0.00429385	-0.00310736
5	0.04000000	0.01947684	0.04121326	0.04835954	0.04161349	-0.01470097	-0.02676726	0.06706625	-0.01142131	-0.01575024	0.06924461	-0.02890672	-0.00141146	0.06215962	0.02978139	0.00714911	0.08574273	0.03779907	-0.02831932	0.00435055	0.01919960	0.00094289	0.00313246	0.00547358	-0.00509784
6	0.05000000	0.01394778	0.04567545	0.03825231	0.04379724	-0.01393446	-0.01822352	0.06724218	-0.01553220	-0.01269102	0.07726308	-0.02052137	-0.00365398	0.04941911	0.03584517	0.00119861	0.07712336	0.04550155	-0.02873684	0.00305187	0.02134379	-0.00218166	0.00328727	0.00490283	-0.00574681
7	0.06000000	0.01685094	0.02778611	0.02648421	0.03923511	-0.01034660	-0.01267769	0.04943775	-0.02432376	-0.01227440	0.08582112	-0.01193373	-0.00075205	0.03447139	0.03841833	-0.00137021	0.07123827	0.04734929	-0.03411145	0.00290966	0.01338352	0.00135013	-0.00060901	0.00428120	-0.00158467
8	0.07000000	0.01683806	0.01662775	0.01087185	0.04068473	-0.01233357	-0.01041160	0.03927437	-0.01741951	-0.00717195	0.08777094	-0.02147036	-0.00994961	0.02771334	0.03531584	-0.00003109	0.05496430	0.05274015	-0.03307037	0.00204713	0.01617980	-0.00446396	0.00284521	-0.00232806	-0.00400095
9	0.08000000	0.00296394	0.03319608	0.01193241	0.04415648	-0.01590026	-0.00511795	0.04090271	-0.01122153	-0.00595411	0.08586483	-0.01937882	-0.01285663	0.02646748	0.03801689	0.00212303	0.04279942	0.05245007	-0.02000766	0.00388653	0.01362132	0.00053235	0.00436971	-0.00050843	-0.00523631
10	0.09000000	-0.00209820	0.03730895	0.02111611	0.03855039	-0.02247002	-0.00610829	0.04824671	-0.02444274	0.00193186	0.07221120	-0.02475878	-0.01267082	0.03118013	0.04020309	0.00092383	0.02686096	0.05239148	-0.01470103	-0.00049692	0.01156005	0.00186070	-0.00069499	-0.00166033	-0.00138184
11	0.10000000	0.00291629	0.02813316	0.04275047	0.03581136	-0.01878576	-0.00961260	0.05795113	-0.03113802	0.00066874	0.06197137	-0.01703997	-0.01138748	0.03815435	0.03888872	-0.00191336	0.01312760	0.04604316	-0.00332249	-0.00245631	0.01036903	0.00516372	0.00667064	-0.00244024	-0.00347612
12	0.11000000	-0.00620843	0.02839246	0.05457012	0.03827432	0.00365358	-0.01259905	0.07089617	-0.03308338	-0.00094068	0.06039225	-0.01714610	-0.00689010	0.04871569	0.04234028	-0.00536479	0.00715707	0.05035023	0.00210792	-0.00629331	0.00146266	0.00805003	0.00099737	0.00153610	-0.00438106
13	0.12000000	-0.01651866	0.02230904	0.04984497	0.04284236	0.02620670	-0.01155247	0.07062105	-0.03172132	0.00377506	0.06562801	-0.02609101	-0.01183442	0.05189347	0.04739442	0.00230566	0.00378491	0.05391980	0.00127565	-0.00842351	-0.00398761	0.00797197	-0.00020114	0.00331899	-0.00452871
14	0.13000000	-0.01537413	0.01080605	0.04088753	0.05415592	0.05342687	-0.00878972	0.06973265	-0.03750182	0.00604785	0.07125953	-0.03193975	-0.01113472	0.04580156	0.05340977	-0.00125570	0.00942906	0.05385490	-0.00095627	-0.00891185	-0.00264425	0.01382188	0.00584112	0.01063960	-0.00489715
15	0.14000000	-0.01280793	0.00114481	0.02607314	0.04964928	0.05283192	-0.00322780	0.05381331	-0.03638987	0.01160336	0.06766682	-0.02331787	-0.01328022	0.04935036	0.05937889	-0.00618234	0.02083932	0.04387360	0.00132270	-0.00706641	-0.00235081	0.01225710	-0.00004431	0.01060651	-0.00309015
16	0.15000000	-0.01632649	0.01426265	0.02052612	0.03425875	0.03978157	-0.00034997	0.03093361	-0.04567206	0.01227908	0.05637409	-0.02022135	-0.01406000	0.05487196	0.07248172	-0.01030264	0.04253442	0.04679862	0.00829307	-0.00807852	-0.00790742	0.00826639	-0.00270866	0.01426610	-0.00142029
17	0.16000000	-0.00499979	0.03154503	0.03908362	0.02625427	0.02584207	-0.00217917	0.01623924	-0.04530278	0.01028427	0.04055578	-0.01651280	-0.01973461	0.04025440	0.06964512	-0.01134057	0.06819508	0.04990614	0.01360910	-0.00382837	-0.00038427	0.00839325	0.00233078	0.00860239	0.00284220
18	0.17000000	-0.00088704	0.03796658	0.03198494	0.01503655	0.00398421	-0.00492264	-0.00633589	-0.04050857	0.01178785	0.03925235	-0.02603821	-0.01986666	0.03850372	0.06672074	-0.00881069	0.08592576	0.05438298	0.01632605	-0.00490266	-0.00099713	0.00947024	-0.00288108	0.00821550	0.00079078
19	0.18000000	0.00885991	0.03617985	0.02715271	0.00793969	-0.01236574	-0.00931017	-0.01621875	-0.04269827	0.00964239	0.03432092	-0.03213883	-0.01731294	0.03616896	0.06043587	-0.01152119	0.10246039	0.05431647	0.02662040	-0.00084258	0.00278672	0.00456724	-0.00008247	0.00671427	0.00077357
20	0.19000000	0.01742776	0.03380287	0.03212233	-0.00198660	-0.02295360	-0.01328924	-0.01332913	-0.04667781	0.00848658	0.03425238	-0.03488715	-0.01466959	0.03403231	0.05970171	-0.01752255	0.09786813	0.05643395	0.03069434	0.00300336	0.00479831	0.00097770	-0.00055767	0.00445876	-0.00176114
21	0.20000000	0.01027927	0.02972202	0.03239546	-0.00152061	-0.02272522	-0.01565796	-0.00968768	-0.04946437	0.00377893	0.03854212	-0.03950869	-0.00756718	0.02966198	0.06355956	-0.01077767	0.07822050	0.05896270	0.03109564	0.00524868	0.00969970	-0.00330662	0.00256088	0.00216860	-0.00081979
22	0.21000000	0.00830392	0.02775243	0.03548272	0.00312214	-0.02479594	-0.02339791	-0.00879980	-0.04876993	-0.00242381	0.04426331	-0.04004247	0.00280050	0.03603741	0.06468025	-0.00770465	0.04942199	0.05312085	0.02601198	0.00844583	0.00827129	-0.00568051	0.00766308	0.00505359	-0.00153791
23	0.22000000	0.00375211	0.01857737	0.03377255	-0.00035753	-0.02113706	-0.02596400	-0.00296595	-0.05059041	-0.00500799	0.04621395	-0.03696444	0.00549736	0.03708495	0.06052264	-0.00597935	0.02450444	0.04989534	0.01805170	0.00704818	0.00813885	0.00155884	0.00101715	0.00484157	0.00298410
24	0.23000000	0.00043729	0.01417047	0.02885758	0.00430698	-0.01988033	-0.02261824	-0.00012645	-0.04861661	-0.01029669	0.03143509	-0.03525354	0.00848700	0.04939271	0.05913849	-0.00702708	0.00734418	0.04875804	0.01204536	0.00934566	0.01545120	-0.00769085	0.00174869	0.00467433	-0.00261766
25	0.24000000	-0.00381249	0.00666726	0.02549543	0.01424499	-0.02202914	-0.02315643	0.01348039	-0.04962905	-0.01525736	0.02463212	-0.03772055	0.01077647	0.05442804	0.06879444	-0.00265076	-0.00096614	0.04877481	0.00961042	0.00850678	0.00717318	-0.00297507	-0.00221133	0.00175166	0.00418701
26	0.25000000	-0.00476803	0.00330359	0.02408260	0.01331725	-0.02157352	-0.02444665	0.02864692	-0.04533285	-0.01341559	0.01353889	-0.04248863	0.00206994	0.04768177	0.07033768	-0.00445400	-0.00172601	0.04931970	0.01672342	0.00586834	0.01212627	-0.00554727	0.00188745	0.00004221	0.00478846
27	0.26000000	-0.00568706	-0.00146171	0.01911844	0.00011216	-0.01583741	-0.02593321	0.04539668	-0.04156882	-0.01814110	0.01218616	-0.04588859	0.00290726	0.05552170	0.06941357	-0.01458147	0.01800217	0.05887011	0.02386969	0.01406780	0.01609819	-0.01059952	-0.00110400	-0.00113120	0.00181593
28	0.27000000	-0.00462694	-0.00675468	0.02024792	-0.00667194	-0.01100359	-0.02989294	0.07103000	-0.04821289	-0.01914203	0.00393645	-0.05204568	0.00797096	0.06718699	0.06827910	-0.01857706	0.04108685	0.07273639	0.03166338	0.01143215	0.01939612	-0.01050868	0.00086075	-0.00732265	-0.00107568
29	0.28000000	-0.00440973	-0.00848024	0.01894074	-0.00449510	-0.00745260	-0.03050900	0.09387165	-0.05200954	-0.01913089	-0.00007855	-0.05452473	0.00944201	0.06526700	0.07079061	-0.02196515	0.06169580	0.08271808	0.03512354	0.01128393	0.02005810	-0.01132349	0.00830648	-0.00994733	-0.00198241
30	0.29000000	0.00782173	-0.00415083	0.01297792	-0.00510033	-0.00086393	-0.03133492	0.12328200	-0.04390099	-0.01838607	-0.00180569	-0.05503177	0.00408080	0.07514027	0.06950233	-0.01997045	0.06940501	0.08512752	0.04006558	0.01218900	0.01213077	-0.01097015	0.01017296	-0.01565824	-0.00448107
31	0.30000000	0.02646365	-0.01265509	-0.01014864	0.00532179	0.00016152	-0.02977467	0.13972847	-0.04052366	-0.01609407	-0.00227443	-0.05223191	0.00278860	0.07963108	0.06626419	-0.02759322	0.06643953	0.07712677	0.04517190	0.01382441	0.01606066	-0.00999511	0.00611319	-0.01841391	-0.00194975
